<svg width="1258" height="688" viewBox="0 0 1258 688" fill="none" xmlns="http://www.w3.org/2000/svg">
<rect x="134" y="158.821" width="1124" height="479" rx="24" fill="#005EB8"/>
<path d="M465.012 359.802L375.204 360.365C374.622 360.365 374.431 360.906 374.431 361.425V437.836C374.431 445.15 323.403 464.16 322.905 463.193L322.843 471.278C322.84 472.786 324.163 474.121 325.851 474.121H326.973C326.981 474.121 326.987 474.121 326.995 474.121H402.296C405.789 474.121 409.242 473.338 412.404 472.016L453.806 454.582C461.259 451.443 465.96 444.702 465.96 437.35V360.862C465.96 360.343 465.594 359.802 465.012 359.802Z" fill="#D3E3FD"/>
<path d="M365.336 355.916V432.341C365.336 439.876 360.488 446.74 352.867 449.993L324.94 461.912C323.115 462.691 323.737 465.135 325.76 465.135H402.495C405.945 465.135 409.354 464.455 412.476 463.142L443.419 450.113C451.094 446.882 455.991 439.988 455.991 432.417V355.916C455.991 355.602 455.707 355.348 455.354 355.348H365.97C365.62 355.348 365.336 355.602 365.336 355.916Z" fill="white"/>
<path d="M296.282 115.851L629.996 114.836C636.705 114.836 641.975 120.845 641.38 127.824L618.023 402.635C617.497 408.791 612.558 413.51 606.639 413.51L195.572 413.447C188.861 413.447 183.526 406.815 184.121 399.833L207.483 126.726C208.008 120.569 212.758 115.18 218.676 115.18L296.282 115.851Z" fill="#DDE9FD"/>
<path d="M280.368 115.808H614.029C620.738 115.808 626.006 121.567 625.409 128.252L602.157 389.569C601.634 395.466 596.696 399.983 590.776 399.983H179.702C172.99 399.983 167.724 394.228 168.319 387.542L191.57 126.224C192.095 120.328 197.034 115.808 202.953 115.808H280.368Z" fill="white"/>
<path d="M179.006 268.357C178.979 268.357 178.951 268.357 178.924 268.354C178.427 268.308 178.059 267.869 178.103 267.371L190.67 126.142C191.24 119.736 196.521 114.902 202.954 114.902H280.369C280.869 114.902 281.274 115.307 281.274 115.809C281.274 116.307 280.869 116.711 280.369 116.711H202.954C197.464 116.711 192.958 120.834 192.472 126.302L179.906 267.531C179.864 268.002 179.469 268.357 179.006 268.357Z" fill="#041E49"/>
<path d="M518.412 400.891H332.674C332.174 400.891 331.77 400.484 331.77 399.984C331.77 399.484 332.174 399.08 332.674 399.08H518.412C518.911 399.08 519.317 399.484 519.317 399.984C519.317 400.484 518.911 400.891 518.412 400.891Z" fill="#041E49"/>
<path d="M608.422 320.11C608.398 320.11 608.37 320.11 608.342 320.106C607.846 320.064 607.477 319.625 607.523 319.126L624.512 128.169C624.772 125.233 623.781 122.306 621.793 120.132C619.804 117.957 616.977 116.714 614.033 116.714H280.369C279.869 116.714 279.464 116.306 279.464 115.807C279.464 115.308 279.869 114.904 280.369 114.904H614.033C617.482 114.904 620.799 116.362 623.128 118.909C625.46 121.456 626.62 124.892 626.314 128.328L609.322 319.284C609.283 319.759 608.89 320.11 608.422 320.11Z" fill="#041E49"/>
<path d="M287.789 126.451H602.823C609.159 126.451 614.132 131.763 613.568 137.935L591.616 379.134C591.122 384.577 586.458 388.748 580.867 388.748H192.743C186.406 388.748 181.434 383.436 181.995 377.266L203.949 136.066C204.444 130.622 209.108 126.451 214.697 126.451H287.789Z" fill="#F6F9FE"/>
<path d="M601.531 154.177L602.902 143.967C603.435 140.021 598.735 136.602 592.746 136.602H295.007H225.927C220.644 136.602 216.237 139.291 215.769 142.769L214.237 154.177H601.531Z" fill="#D3E3FD"/>
<path d="M592.306 280.002H331.326L341.964 165.347H602.944L592.306 280.002Z" fill="#D3E3FD"/>
<path d="M584.397 376.555H321.832L330.039 288.621H592.605L584.397 376.555Z" fill="#D3E3FD"/>
<path d="M316.912 280.602H202.866L213.696 166.203H327.743L316.912 280.602Z" fill="#D3E3FD"/>
<path d="M314.281 303.257H202.667L203.623 292.935H315.237L314.281 303.257Z" fill="#D3E3FD"/>
<path d="M312.835 325.039H201.221L202.177 314.714H313.792L312.835 325.039Z" fill="#D3E3FD"/>
<path d="M311.432 342.24H199.818L200.774 331.919H312.388L311.432 342.24Z" fill="#D3E3FD"/>
<path d="M310.064 359.062H198.45L199.406 348.741H311.021L310.064 359.062Z" fill="#D3E3FD"/>
<path d="M308.661 376.267H197.046L198.003 365.945H309.617L308.661 376.267Z" fill="#D3E3FD"/>
<path d="M562.982 511.38L89.7357 512.076L134.46 464.447L612.518 463.744L571.524 507.401C569.112 509.967 566.092 511.375 562.982 511.38Z" fill="#EBF2FE"/>
<path d="M560.641 494.15L160.509 494.739L198.324 454.469L602.525 453.874L567.864 490.786C565.825 492.955 563.271 494.146 560.641 494.15Z" fill="white"/>
<path d="M464.782 569.17C453.513 518.179 518.476 517.814 544.414 551.84C548.184 556.784 545.491 563.958 539.389 565.108L476.519 576.938C471.152 577.947 465.961 574.505 464.782 569.17Z" fill="#041E49"/>
<path d="M508.455 517.443C504.33 515.001 498.193 512.036 486.981 513.057C474.623 514.189 471.338 523.074 451.895 525.964C418.452 530.94 433.544 551.266 433.544 551.266L459.929 541.181C461.636 540.527 463.492 540.343 465.301 540.654C470.865 541.609 484.207 543.418 496.581 541.395C505.838 539.884 517.414 548.196 524.24 542.872C528.203 539.78 517.247 522.65 508.455 517.443Z" fill="white"/>
<path d="M493.752 513.997C491.75 513.876 489.541 513.906 487.079 514.132C481.636 514.628 477.996 516.713 473.782 519.128C468.615 522.085 462.763 525.437 452.049 527.033C440.908 528.688 434.157 532.191 431.98 537.437C429.856 542.56 432.795 548.072 433.965 549.952L459.544 540.176C461.438 539.453 463.49 539.251 465.483 539.593C470.682 540.484 484.094 542.346 496.407 540.335C500.579 539.651 505.073 540.826 509.416 541.961C514.903 543.394 520.081 544.749 523.579 542.024C523.981 541.709 524.021 540.978 523.985 540.422C523.653 535.164 515.126 522.643 507.909 518.372C504.512 516.358 500.24 514.389 493.752 513.997ZM433.48 552.344C433.171 552.325 432.875 552.17 432.678 551.911C432.444 551.59 426.931 544.029 429.989 536.626C432.465 530.622 439.785 526.677 451.733 524.899C462.047 523.367 467.711 520.12 472.713 517.258C476.959 514.822 480.971 512.525 486.886 511.986C497.933 510.974 504.265 513.709 509.005 516.515C516.436 520.917 525.72 533.803 526.139 540.285C526.261 542.231 525.533 543.23 524.899 543.723C520.568 547.102 514.623 545.547 508.873 544.046C504.745 542.966 500.477 541.852 496.752 542.461C484.122 544.524 470.421 542.625 465.118 541.715C463.504 541.439 461.843 541.602 460.313 542.188L433.929 552.273C433.783 552.33 433.629 552.353 433.48 552.344Z" fill="#041E49"/>
<path d="M123.483 419.241C120.321 409.191 129.934 387.293 140.616 387.368C186.801 387.698 261.959 389.995 361.797 437.923C365.569 439.735 368.294 443.523 369.252 448.258L369.813 451.04C370.717 455.491 369.52 462.315 367.144 467.81C364.801 473.232 359.885 477.263 353.951 478.052C352.487 478.247 350.956 478.253 349.481 477.923C326.716 472.827 257.568 452.908 204.909 482.732C158.676 508.912 133.405 450.782 123.483 419.241Z" fill="#9AC3F6"/>
<path d="M452.501 524.488C449.119 520.592 443.733 519.022 438.739 520.421C414.613 527.182 336.086 547.723 323.85 532.234C316.865 523.394 301.023 497.352 283.549 473.545C272.239 458.132 260.246 443.657 249.529 435.394C217.601 410.767 127.688 411.692 127.688 411.692C127.688 411.692 193.248 584.955 261.627 608.513C273.39 612.567 283.665 615.169 292.833 616.654C327.372 622.249 346.193 611.984 369.653 603.62C404.681 591.133 459.405 558.083 460.167 545.239C460.704 536.175 456.501 529.097 452.501 524.488Z" fill="#9AC3F6"/>
<path d="M129 638.642C198.5 638.642 261.5 638.642 322.5 638.642C284.104 593.988 229.195 579.272 229.195 579.272C272.026 591.573 260.55 502.362 255.543 469.038C252.768 450.567 233.599 428.341 220.364 413.894C191.553 382.444 134.812 345.694 101.54 359.377C86.9832 365.367 81.2194 373.755 74.5797 389.845C73.3692 392.779 72.4967 395.848 71.9429 398.987C49.1062 528.483 84.6608 605.479 129 638.642Z" fill="#9AC3F6"/>
<path d="M293.879 487.375C293.561 487.356 293.255 487.197 293.06 486.915C278.839 466.486 263.628 450.175 247.851 438.435C239.054 431.891 227.773 426.253 216.086 422.559C215.52 422.381 215.205 421.775 215.384 421.209C215.563 420.64 216.165 420.324 216.735 420.505C228.644 424.268 240.151 430.021 249.136 436.703C265.1 448.582 280.472 465.062 294.824 485.685C295.166 486.172 295.044 486.843 294.558 487.185C294.351 487.329 294.113 487.389 293.879 487.375Z" fill="#DDE9FD"/>
<path d="M307.961 622.58C307.922 622.578 307.88 622.572 307.842 622.566C296.945 620.703 287.711 618.164 276.967 614.087C247.01 602.713 203.492 546.584 183.172 503.328C182.92 502.788 183.15 502.147 183.688 501.893C184.227 501.642 184.867 501.873 185.12 502.409C205.265 545.297 248.254 600.878 277.731 612.073C288.337 616.099 297.45 618.602 308.204 620.444C308.791 620.544 309.184 621.099 309.087 621.686C308.992 622.232 308.5 622.612 307.961 622.58Z" fill="#DDE9FD"/>
<path d="M413.844 483.059C416.058 483.388 418.705 483.714 422.88 482.903L455.25 476.034C458.06 475.487 459.856 472.753 459.225 469.991C459.225 469.991 458.362 465.522 453.384 466.151C451.403 466.403 440.043 469.133 438.723 469.056C436.6 468.935 435.624 467.364 436.403 465.406C436.802 464.404 437.132 463.482 437.401 462.68C438.045 460.754 439.691 459.331 441.695 458.917C445.764 458.084 457.894 456.343 459.631 455.659C462.213 454.644 466.013 453.554 467.377 451.022L467.727 450.362C469.113 447.725 467.131 444.58 464.128 444.653L434.994 445.59C431.261 445.681 427.671 447.049 424.839 449.459L410.194 461.918C406.892 464.727 402.25 465.402 398.273 463.653L363.991 446.249C353.787 441.7 346.738 461.06 346.738 461.06C345.418 467.026 349.449 472.95 355.245 474.144L413.844 483.059Z" fill="white"/>
<path d="M414.006 481.993C416.365 482.344 418.802 482.595 422.673 481.848L455.027 474.981C456.124 474.767 457.047 474.148 457.639 473.232C458.224 472.339 458.412 471.271 458.176 470.23C458.095 469.844 457.341 466.735 453.522 467.222C452.748 467.318 450.296 467.852 447.703 468.415C441.975 469.663 439.453 470.179 438.664 470.132C438.658 470.131 438.651 470.131 438.645 470.13C437.279 470.048 436.187 469.474 435.572 468.504C434.953 467.532 434.891 466.29 435.402 465.007C435.751 464.132 436.082 463.233 436.38 462.338C437.139 460.067 439.095 458.353 441.479 457.865C443.094 457.532 445.916 457.067 448.902 456.576C453.083 455.886 458.285 455.03 459.236 454.657C459.603 454.513 459.993 454.367 460.396 454.215C462.647 453.377 465.449 452.33 466.431 450.512L466.774 449.858C467.241 448.974 467.202 447.935 466.674 447.085C466.134 446.212 465.191 445.715 464.154 445.731L435.027 446.665C431.541 446.754 428.175 448.037 425.539 450.28L410.89 462.739C407.296 465.801 402.171 466.547 397.839 464.64L363.503 447.21C361.797 446.452 360.095 446.434 358.351 447.173C352.282 449.747 348.128 460.43 347.775 461.364C347.235 463.887 347.732 466.498 349.174 468.723C350.63 470.975 352.921 472.563 355.462 473.088L414.006 481.993ZM416.548 484.444C415.516 484.382 414.583 484.257 413.685 484.125L413.682 484.124L355.083 475.207C351.928 474.56 349.133 472.628 347.364 469.895C345.595 467.161 344.998 463.937 345.688 460.827C345.697 460.779 345.709 460.734 345.728 460.69C345.912 460.183 350.332 448.237 357.507 445.193C359.802 444.217 362.132 444.243 364.428 445.268L398.757 462.691C402.288 464.24 406.525 463.629 409.497 461.1L424.143 448.638C427.154 446.075 431 444.609 434.968 444.513L464.095 443.579C465.912 443.526 467.558 444.42 468.504 445.947C469.439 447.457 469.504 449.293 468.676 450.863L468.33 451.526C466.956 454.067 463.738 455.271 461.15 456.236C460.757 456.382 460.38 456.522 460.027 456.664C458.943 457.087 455.058 457.745 449.253 458.702C446.286 459.191 443.484 459.651 441.912 459.973C440.276 460.308 438.939 461.479 438.419 463.022C438.109 463.955 437.766 464.889 437.402 465.806C437.156 466.426 437.149 466.973 437.387 467.346C437.622 467.716 438.113 467.941 438.775 467.981C438.778 467.981 438.781 467.981 438.784 467.981C439.5 467.998 444.162 466.983 447.247 466.312C450.002 465.712 452.381 465.191 453.25 465.084C457.979 464.482 459.915 467.898 460.28 469.784C460.644 471.364 460.348 473.018 459.444 474.41C458.529 475.815 457.113 476.769 455.456 477.093L423.102 483.96C420.424 484.476 418.339 484.552 416.548 484.444Z" fill="#041E49"/>
<path d="M376.659 477.03C372.594 468.465 379.178 459.127 382.695 455.024C383.666 453.886 383.356 452.16 382.039 451.435L375.333 447.742C374.416 447.237 373.277 447.39 372.52 448.107C368.086 452.314 354.535 466.856 365.365 478.457C365.723 478.841 366.213 479.082 366.732 479.166L374.124 480.335C376.001 480.635 377.468 478.732 376.659 477.03Z" fill="white"/>
<path d="M374.257 448.524C373.897 448.503 373.537 448.628 373.261 448.888C369.027 452.905 356.004 466.854 366.152 477.723C366.332 477.916 366.607 478.057 366.897 478.1L374.293 479.273C374.783 479.349 375.26 479.159 375.558 478.763C375.692 478.582 375.975 478.097 375.69 477.493C371.293 468.233 378.553 458.206 381.874 454.323C382.13 454.028 382.235 453.644 382.166 453.268C382.095 452.886 381.866 452.569 381.52 452.378L374.814 448.685C374.637 448.59 374.448 448.536 374.257 448.524ZM374.296 481.438C374.182 481.431 374.069 481.417 373.956 481.401L366.563 480.231C365.796 480.11 365.089 479.741 364.578 479.195C353.079 466.873 367.183 451.686 371.78 447.325C372.885 446.277 374.519 446.066 375.852 446.799L382.558 450.492C383.469 450.993 384.1 451.866 384.283 452.884C384.469 453.899 384.185 454.935 383.512 455.725C380.461 459.289 373.78 468.451 377.634 476.568C378.18 477.722 378.049 479.024 377.28 480.053C376.579 480.995 375.457 481.508 374.296 481.438Z" fill="#041E49"/>
<path d="M380.893 460.664C380.594 465.61 376.28 469.375 371.255 469.071C366.23 468.768 362.4 464.512 362.699 459.566C362.997 454.621 367.311 450.859 372.336 451.162C377.361 451.466 381.191 455.719 380.893 460.664Z" fill="#DDE9FD"/>
<path d="M372.271 452.237C367.846 451.97 364.035 455.286 363.772 459.631C363.51 463.976 366.895 467.729 371.32 467.997C375.745 468.264 379.557 464.944 379.819 460.6C380.081 456.255 376.696 452.504 372.271 452.237ZM371.19 470.146C365.581 469.808 361.291 465.032 361.625 459.501C361.958 453.971 366.791 449.749 372.401 450.088C378.01 450.426 382.303 455.199 381.97 460.729C381.636 466.26 376.8 470.485 371.19 470.146Z" fill="#041E49"/>
<path d="M134.182 412.665L134.793 334.407L185.802 368.2L186.4 411.439C186.29 421.083 178.167 426.655 178.167 426.655C168.121 434.356 153.734 433.347 143.102 426.419L140.639 424.813C136.521 422.13 134.081 417.541 134.182 412.665Z" fill="white"/>
<path d="M135.854 336.4L135.259 412.671C135.258 412.677 135.259 412.681 135.259 412.687C135.165 417.218 137.396 421.414 141.227 423.91L143.689 425.516C154.57 432.609 168.479 432.725 177.512 425.8C177.633 425.716 185.222 420.373 185.324 411.426L184.733 368.784L135.854 336.4ZM159.633 433.097C153.824 432.747 147.883 430.82 142.514 427.322L140.052 425.716C135.595 422.814 132.999 417.928 133.106 412.648L133.716 334.397C133.72 334.003 133.938 333.642 134.287 333.454C134.636 333.27 135.058 333.292 135.387 333.507L186.396 367.303C186.692 367.501 186.873 367.831 186.878 368.186L187.477 411.423C187.361 421.539 179.126 427.306 178.775 427.545C173.399 431.669 166.611 433.518 159.633 433.097Z" fill="#041E49"/>
<path d="M170.593 258.156C216.205 282.184 202.475 265.484 215.436 268.961C233.182 273.725 236.375 298.857 230.964 307.199C225.755 315.232 206.541 304.858 198.936 314.372C193.972 320.585 173.347 324.545 177.937 353.469C178.9 359.537 185.057 362.363 185.398 367.422C185.665 371.369 204.847 397.195 174.171 415.877C143.337 428.315 124.823 424.876 103.495 423.588C91.6605 417.985 60.1376 409.605 56.7794 392.414C55.0654 383.64 54.178 360.661 59.337 350.037C74.3905 325.185 119.808 341.093 117.524 324.063C114.272 299.811 101.142 304.22 100.065 276.971C99.7346 268.617 114.826 259.627 121.134 259.329C130.66 258.881 135.448 261.187 152.874 270.309C157.592 272.777 152.43 248.589 170.593 258.156Z" fill="#041E49"/>
<path d="M160.059 305.576L162.347 313.132C163.447 316.767 164.303 320.469 164.886 324.216C165.971 331.195 168.318 343.138 169.556 349.864C173.53 371.455 202.981 354.782 202.981 354.782L205.853 349.666L209.48 349.024C210.14 348.908 210.784 348.67 211.307 348.258C212.744 347.129 213.157 345.277 212.504 343.722C209.386 336.308 203.437 320.781 201.696 306.564C201.28 303.169 198.757 300.37 195.392 299.512C187.874 297.598 174.128 296.221 160.059 305.576Z" fill="white"/>
<path d="M161.323 306.037L163.377 312.819C164.504 316.548 165.37 320.325 165.949 324.053C166.733 329.093 168.206 336.883 169.389 343.14C169.849 345.57 170.274 347.818 170.614 349.667C171.437 354.136 173.485 357.164 176.702 358.668C185.369 362.728 200.069 355.131 202.193 353.985L204.915 349.14C205.073 348.856 205.349 348.661 205.666 348.605L209.292 347.964C209.847 347.864 210.3 347.679 210.642 347.41C211.651 346.617 212 345.302 211.511 344.141C208.192 336.243 202.365 320.879 200.627 306.695C200.269 303.769 198.059 301.302 195.127 300.555C188.334 298.825 174.998 297.277 161.323 306.037ZM181.439 361.966C179.448 361.846 177.531 361.433 175.793 360.621C171.908 358.806 169.453 355.252 168.497 350.058C168.157 348.209 167.733 345.967 167.274 343.541C166.088 337.267 164.612 329.457 163.822 324.384C163.258 320.755 162.415 317.073 161.317 313.445L159.028 305.889C158.891 305.431 159.068 304.939 159.463 304.677C174.064 294.972 188.408 296.62 195.658 298.469C199.444 299.434 202.299 302.634 202.764 306.433C204.47 320.358 210.22 335.511 213.496 343.303C214.366 345.373 213.753 347.705 211.972 349.106C211.349 349.594 210.574 349.925 209.667 350.085L206.543 350.64L203.919 355.311C203.823 355.482 203.682 355.623 203.511 355.72C202.924 356.053 191.279 362.56 181.439 361.966Z" fill="#041E49"/>
<path d="M160.36 330.709C160.36 330.709 154.804 312.27 146.867 316.503C138.931 320.734 145.564 340.884 160.36 330.709Z" fill="white"/>
<g clip-path="url(#clip0_157_656)">
<path d="M609.083 129.904H530.25V208.737H609.083V129.904Z" fill="white"/>
<path fill-rule="evenodd" clip-rule="evenodd" d="M548.812 155.261C548.812 155.261 548.812 168.251 548.812 174.79C548.812 182.379 553.958 186.508 559.75 186.508C563.087 186.508 565.565 184.979 566.179 182.781C566.446 181.832 566.402 180.716 565.877 179.466C565.263 177.993 563.913 176.252 561.513 174.344C559.705 172.904 558.667 171.655 558.277 170.539C557.607 168.653 559.516 167.749 561.324 167.749C564.728 167.749 567.574 171.454 567.574 175.561C567.574 176.42 568.277 177.123 569.136 177.123C569.996 177.123 570.699 176.42 570.699 175.561C570.699 169.646 566.223 164.624 561.324 164.624C558.533 164.624 556 166.052 555.241 168.262C554.549 170.271 555.23 173.34 559.571 176.788C561.424 178.25 562.529 179.545 562.998 180.672C563.21 181.174 563.277 181.609 563.165 181.977C563.031 182.379 562.685 182.669 562.239 182.881C561.569 183.216 560.71 183.361 559.761 183.361C555.565 183.361 551.949 180.27 551.949 174.768C551.949 168.229 551.949 155.239 551.949 155.239C551.949 154.379 551.246 153.676 550.386 153.676C549.516 153.698 548.812 154.402 548.812 155.261Z" fill="black"/>
<path fill-rule="evenodd" clip-rule="evenodd" d="M576.614 152.594L567.239 161.979C566.625 162.593 566.625 163.575 567.239 164.189C567.853 164.802 568.835 164.802 569.449 164.189L578.824 154.803C579.437 154.189 579.437 153.207 578.824 152.594C578.21 151.98 577.228 151.98 576.614 152.594Z" fill="black"/>
<path fill-rule="evenodd" clip-rule="evenodd" d="M568.801 152.594L560.989 160.406C560.375 161.019 560.375 162.001 560.989 162.615C561.603 163.229 562.585 163.229 563.199 162.615L571.011 154.803C571.625 154.189 571.625 153.207 571.011 152.594C570.397 151.98 569.415 151.98 568.801 152.594Z" fill="black"/>
<path fill-rule="evenodd" clip-rule="evenodd" d="M580.42 156.511L571.145 165.885C570.542 166.499 570.542 167.492 571.156 168.095C571.77 168.697 572.763 168.697 573.366 168.083L582.641 158.709C583.243 158.095 583.243 157.102 582.629 156.5C582.016 155.897 581.033 155.897 580.42 156.511Z" fill="black"/>
<path fill-rule="evenodd" clip-rule="evenodd" d="M580.42 164.323L572.696 172.134C572.094 172.748 572.094 173.741 572.708 174.344C573.321 174.947 574.315 174.947 574.917 174.333L582.641 166.521C583.243 165.907 583.243 164.914 582.629 164.311C582.016 163.698 581.033 163.709 580.42 164.323Z" fill="black"/>
<path fill-rule="evenodd" clip-rule="evenodd" d="M582.406 186.508C582.842 186.508 583.188 186.162 583.188 185.727V174.791C583.188 174.378 582.864 174.032 582.451 174.009C582.038 173.987 581.681 174.288 581.636 174.701C581.29 177.781 580.308 180.214 578.612 181.933C576.915 183.651 574.527 184.656 571.402 184.946C570.989 184.979 570.677 185.348 570.688 185.761C570.71 186.174 571.056 186.508 571.469 186.508H582.406Z" fill="black"/>
</g>
<rect x="534.5" y="137.821" width="63" height="63" rx="31.5" stroke="#041E49" stroke-width="3"/>
<rect width="64" height="64" rx="32" transform="matrix(1 0 0 -1 354 294.142)" fill="#D50032"/>
<circle opacity="0.2" cx="386" cy="262.5" r="40.8889" fill="#D50032"/>
<g filter="url(#filter0_d_157_656)">
<circle cx="386" cy="262.142" r="32" fill="#D50032"/>
</g>
<path d="M386.947 250.21L377.997 257.491V268.57L386.947 275.851V250.21Z" stroke="white" stroke-width="1.33333"/>
<path d="M374.972 268.219V257.84H372.013V268.219H374.972Z" stroke="white" stroke-width="1.33333"/>
<path d="M394.929 275.856C394.876 275.856 394.823 275.833 394.783 275.788C394.703 275.698 394.703 275.553 394.783 275.463C397.748 272.142 399.38 267.727 399.38 263.032C399.38 258.333 397.748 253.918 394.783 250.598C394.703 250.508 394.703 250.362 394.783 250.273C394.863 250.183 394.993 250.183 395.073 250.273C398.115 253.68 399.791 258.212 399.791 263.032C399.791 267.849 398.115 272.38 395.073 275.788C395.033 275.833 394.981 275.856 394.929 275.856Z" fill="white" stroke="white" stroke-width="1.02222"/>
<path d="M390.51 270.907C390.459 270.907 390.406 270.884 390.366 270.839C390.286 270.751 390.286 270.604 390.366 270.515C392.15 268.516 393.132 265.858 393.132 263.031C393.132 260.203 392.15 257.545 390.366 255.546C390.286 255.457 390.286 255.312 390.366 255.222C390.446 255.132 390.576 255.132 390.655 255.222C392.517 257.306 393.543 260.08 393.543 263.031C393.543 265.981 392.517 268.755 390.655 270.839C390.616 270.884 390.563 270.907 390.51 270.907Z" fill="white" stroke="white" stroke-width="1.01333"/>
<defs>
<filter id="filter0_d_157_656" x="314" y="190.142" width="144" height="144" filterUnits="userSpaceOnUse" color-interpolation-filters="sRGB">
<feFlood flood-opacity="0" result="BackgroundImageFix"/>
<feColorMatrix in="SourceAlpha" type="matrix" values="0 0 0 0 0 0 0 0 0 0 0 0 0 0 0 0 0 0 127 0" result="hardAlpha"/>
<feOffset/>
<feGaussianBlur stdDeviation="20"/>
<feComposite in2="hardAlpha" operator="out"/>
<feColorMatrix type="matrix" values="0 0 0 0 0.890196 0 0 0 0 0.0235294 0 0 0 0 0.0745098 0 0 0 1 0"/>
<feBlend mode="normal" in2="BackgroundImageFix" result="effect1_dropShadow_157_656"/>
<feBlend mode="normal" in="SourceGraphic" in2="effect1_dropShadow_157_656" result="shape"/>
</filter>
<clipPath id="clip0_157_656">
<rect x="533" y="136.321" width="66" height="66" rx="33" fill="white"/>
</clipPath>
</defs>
</svg>
